<svg xmlns="http://www.w3.org/2000/svg" viewBox="0 0 336.38 92.05"><defs><style>.cls-1{fill:#040000;}</style></defs><g id="レイヤー_2" data-name="レイヤー 2"><g id="レイヤー_1-2" data-name="レイヤー 1"><polygon class="cls-1" points="280.13 17.89 280.13 73.97 54.04 73.97 54.04 17.89 280.13 17.89 227.19 0 0 0 0 55.88 108.08 92.06 336.38 92.06 336.38 36.89 280.13 17.89"/><polygon class="cls-1" points="280.13 17.89 280.13 17.89 280.13 17.89 280.13 17.89"/><path class="cls-1" d="M69.36,58.3V33.75h7.36V52.16H94.85V58.3Z"/><path class="cls-1" d="M100.29,52.16h0V39.89h0V33.75h7.4v6.14h0V52.16h0V58.3h-7.4Z"/><path class="cls-1" d="M221.22,52.16h0V39.89h0V33.75h7.39v6.14h0V52.16h0V58.3h-7.39Z"/><path class="cls-1" d="M136,58.3l-13.49-14v14h-7.44V33.75h6.86l14.38,15.17V33.75h7.4V58.3Z"/><path class="cls-1" d="M168.81,46,180.45,58.3h-8.83l-8.81-9.08h-4.26V58.3h-7.43V33.75h7.43V43h4l9-9.29h8.83Z"/><path class="cls-1" d="M262.19,34.11a4.86,4.86,0,0,1,1.18.9,5.66,5.66,0,0,1,.89,1.2,2.66,2.66,0,0,1,.35,1.24v16a5.85,5.85,0,0,1-.39,2.27,4.41,4.41,0,0,1-1,1.51,4,4,0,0,1-1.5.85,5.85,5.85,0,0,1-1.71.25H236V43.75h7.43v8.34h13.5c.18,0,.27-.06.27-.16V40c0-.11-.09-.16-.27-.16H236v-6.1h24.9A2.62,2.62,0,0,1,262.19,34.11Z"/><path class="cls-1" d="M206.67,33.75,180.45,58.3h8l5.79-5.16,11.59,5.16h8.05V33.75Zm-.43,18.38-7.72-3.35,7.72-7.24Z"/></g></g></svg>