<svg xmlns="http://www.w3.org/2000/svg" width="39.251" height="39.252" viewBox="0 0 39.251 39.252">
  <path id="パス_31" data-name="パス 31" d="M81.383,128.169a19.626,19.626,0,1,0,19.626,19.626A19.626,19.626,0,0,0,81.383,128.169Zm6.354,16.367q.009.211.009.424a9.324,9.324,0,0,1-14.353,7.855,6.672,6.672,0,0,0,.782.046,6.58,6.58,0,0,0,4.072-1.4,3.282,3.282,0,0,1-3.063-2.277,3.268,3.268,0,0,0,1.48-.056,3.279,3.279,0,0,1-2.63-3.214c0-.014,0-.028,0-.042a3.259,3.259,0,0,0,1.485.41,3.281,3.281,0,0,1-1.015-4.376,9.309,9.309,0,0,0,6.757,3.425,3.28,3.28,0,0,1,5.587-2.99,6.582,6.582,0,0,0,2.081-.8,3.291,3.291,0,0,1-1.442,1.813,6.548,6.548,0,0,0,1.883-.516A6.665,6.665,0,0,1,87.737,144.536Z" transform="translate(-61.757 -128.169)" fill="#878787"/>
</svg>
