<?xml version="1.0" encoding="utf-8"?>
<!-- Generator: Adobe Illustrator 24.2.1, SVG Export Plug-In . SVG Version: 6.00 Build 0)  -->
<svg version="1.1" id="レイヤー_1" xmlns="http://www.w3.org/2000/svg" xmlns:xlink="http://www.w3.org/1999/xlink" x="0px"
	 y="0px" viewBox="0 0 2345.3 295.5" style="enable-background:new 0 0 2345.3 295.5;" xml:space="preserve">
<style type="text/css">
	.st0{opacity:0.3;}
	.st1{fill:#F1F1F1;}
</style>
<g id="グループ_13" transform="translate(-113.76 -312)" class="st0">
	
		<image style="overflow:visible;enable-background:new    ;" width="308" height="297" id="長方形_7" xlink:href="FB760C99.png"  transform="matrix(0.9951 0 0 0.9951 113.7602 312)">
	</image>
	<g>
		<path class="st1" d="M115.3,607.3V313h88.2v220.7h217.4v73.6H115.3z"/>
		<path class="st1" d="M486,533.7L486,533.7V386.6l0,0V313h88.7v73.6h0v147.1h0v73.6H486V533.7z"/>
		<path class="st1" d="M1935.6,533.7L1935.6,533.7V386.6l0,0V313h88.6v73.6l0,0v147.1l0,0v73.6h-88.6V533.7z"/>
		<path class="st1" d="M914.2,607.3L752.5,438.9v168.3h-89.1V313h82.2L918,494.9V313h88.7v294.3H914.2z"/>
		<path class="st1" d="M1307.3,460.2l139.6,147.1h-105.8l-105.6-108.9h-51.1v108.9h-89.1V313h89.1v111.3h48.3L1341.1,313h105.8
			L1307.3,460.2z"/>
		<path class="st1" d="M2426.7,317.3c5.2,2.8,9.9,6.5,14.1,10.8c4.3,4.4,7.8,9.2,10.6,14.4c2.9,5.2,4.3,10.1,4.3,14.8v191.5
			c0,10.7-1.6,19.7-4.7,27.1c-3.2,7.4-7.3,13.4-12.5,18.2c-5.2,4.7-11.2,8.1-18,10.1c-6.7,2-13.6,3.1-20.5,3.1h-287.2V432.8h89.1
			v99.9h161.8c2.2,0,3.3-0.6,3.3-1.9V388c0-1.3-1.1-1.8-3.3-1.8h-250.9V313h298.5C2416.4,313,2421.5,314.4,2426.7,317.3z"/>
		<path class="st1" d="M1761.2,313l-314.3,294.3h95.7l69.5-61.8l138.9,61.8h96.4V313H1761.2z M1756,533.2l-92.5-40.1l92.5-86.8
			V533.2z"/>
	</g>
</g>
</svg>
