<svg xmlns="http://www.w3.org/2000/svg" width="163.771" height="44.818" viewBox="0 0 163.771 44.818">
  <g id="グループ_26" data-name="グループ 26" transform="translate(-79.885 -231.674)">
    <g id="グループ_9" data-name="グループ 9" transform="translate(79.885 231.674)">
      <g id="グループ_8" data-name="グループ 8">
        <path id="パス_7" data-name="パス 7" d="M216.27,240.383v27.3H106.2v-27.3H216.269l-25.774-8.71H79.885v27.206l52.622,17.613H243.656V249.636Z" transform="translate(-79.885 -231.674)"/>
        <path id="パス_8" data-name="パス 8" d="M360.012,249.563h0Z" transform="translate(-223.627 -240.853)"/>
      </g>
    </g>
    <g id="グループ_10" data-name="グループ 10" transform="translate(113.654 248.106)">
      <path id="パス_9" data-name="パス 9" d="M149.245,277.378V265.425h3.582v8.964h8.829v2.988Z" transform="translate(-149.245 -265.425)"/>
      <path id="パス_10" data-name="パス 10" d="M180.173,274.389h0v-5.975h0v-2.989h3.6v2.989h0v5.975h0v2.988h-3.6Z" transform="translate(-165.115 -265.425)"/>
      <path id="パス_11" data-name="パス 11" d="M301.1,274.389h0v-5.975h0v-2.989h3.6v2.989h0v5.975h0v2.988h-3.6Z" transform="translate(-227.169 -265.425)"/>
      <path id="パス_12" data-name="パス 12" d="M205.155,277.378l-6.569-6.838v6.838h-3.621V265.425h3.34l7,7.387v-7.387h3.6v11.953Z" transform="translate(-172.705 -265.425)"/>
      <path id="パス_13" data-name="パス 13" d="M239.614,271.4l5.67,5.975h-4.3l-4.29-4.424h-2.076v4.424H231V265.425h3.619v4.521h1.961l4.405-4.521h4.3Z" transform="translate(-191.197 -265.425)"/>
      <path id="パス_14" data-name="パス 14" d="M328.642,265.6a2.388,2.388,0,0,1,.574.44,2.651,2.651,0,0,1,.431.585,1.25,1.25,0,0,1,.173.6V275a2.808,2.808,0,0,1-.192,1.1,2.077,2.077,0,0,1-.507.738,1.875,1.875,0,0,1-.729.412,2.855,2.855,0,0,1-.831.124H315.9v-7.086h3.619v4.059h6.571c.089,0,.134-.025.134-.076v-5.8c0-.051-.045-.074-.134-.074H315.9v-2.971H328.02A1.291,1.291,0,0,1,328.642,265.6Z" transform="translate(-234.759 -265.425)"/>
      <path id="パス_15" data-name="パス 15" d="M273.1,265.425l-12.765,11.953h3.888l2.822-2.512,5.644,2.512h3.917V265.425Zm-.211,8.946-3.756-1.629,3.756-3.525Z" transform="translate(-206.249 -265.425)"/>
    </g>
  </g>
</svg>
