<svg xmlns="http://www.w3.org/2000/svg" width="128.85" height="35.262" viewBox="0 0 128.85 35.262">
  <g id="グループ_11" data-name="グループ 11" transform="translate(-79.885 -231.674)">
    <g id="グループ_9" data-name="グループ 9" transform="translate(79.885 231.674)">
      <g id="グループ_8" data-name="グループ 8">
        <path id="パス_7" data-name="パス 7" d="M187.189,238.526v21.48h-86.6v-21.48h86.6l-20.278-6.853H79.885v21.4l41.4,13.857h87.448v-21.13Z" transform="translate(-79.885 -231.674)" fill="#fff"/>
        <path id="パス_8" data-name="パス 8" d="M360.012,249.563h0Z" transform="translate(-252.708 -242.71)" fill="#fff"/>
      </g>
    </g>
    <g id="グループ_10" data-name="グループ 10" transform="translate(106.454 244.602)">
      <path id="パス_9" data-name="パス 9" d="M149.245,274.829v-9.4h2.818v7.053h6.946v2.351Z" transform="translate(-149.245 -265.425)" fill="#fff"/>
      <path id="パス_10" data-name="パス 10" d="M180.173,272.478h0v-4.7h0v-2.352h2.834v2.352h0v4.7h0v2.351h-2.834Z" transform="translate(-168.326 -265.425)" fill="#fff"/>
      <path id="パス_11" data-name="パス 11" d="M301.1,272.478h0v-4.7h0v-2.352h2.832v2.352h0v4.7h0v2.351H301.1Z" transform="translate(-242.934 -265.425)" fill="#fff"/>
      <path id="パス_12" data-name="パス 12" d="M202.982,274.829l-5.168-5.38v5.38h-2.849v-9.4h2.628l5.509,5.812v-5.812h2.834v9.4Z" transform="translate(-177.452 -265.425)" fill="#fff"/>
      <path id="パス_13" data-name="パス 13" d="M237.778,270.128l4.461,4.7h-3.381l-3.375-3.48h-1.633v3.48H231v-9.4h2.847v3.557h1.543l3.466-3.557h3.381Z" transform="translate(-199.685 -265.425)" fill="#fff"/>
      <path id="パス_14" data-name="パス 14" d="M325.924,265.561a1.879,1.879,0,0,1,.452.346,2.086,2.086,0,0,1,.339.46.983.983,0,0,1,.136.473v6.119a2.209,2.209,0,0,1-.151.866,1.634,1.634,0,0,1-.4.58,1.476,1.476,0,0,1-.574.324,2.247,2.247,0,0,1-.654.1H315.9v-5.575h2.847v3.194h5.17c.07,0,.105-.02.105-.06v-4.567c0-.04-.035-.059-.105-.059H315.9v-2.338h9.538A1.015,1.015,0,0,1,325.924,265.561Z" transform="translate(-252.06 -265.425)" fill="#fff"/>
      <path id="パス_15" data-name="パス 15" d="M270.379,265.425l-10.043,9.4h3.059l2.22-1.977,4.44,1.977h3.082v-9.4Zm-.166,7.039-2.955-1.282,2.955-2.774Z" transform="translate(-217.782 -265.425)" fill="#fff"/>
    </g>
  </g>
</svg>
